#!OML:ASF H:\charlestonDancing\Project 1\Capture day 1\Session 1\femaleDancer.ASF
:FULLY-SPECIFIED
:DEGREES
325
root 0.25559 17.6328 4.82357 529.981 -86.3943 -515.934
lowerback 20.4546 -4.68546 0.155551
upperback 4.57587 -6.36994 -0.210838
thorax -6.4475 -3.20042 1.31893
lowerneck 4.40204 10.9472 9.45159
upperneck -12.8425 14.3346 -11.3013
head -2.98781 7.25318 -5.31243
rclavicle -5.48646e-014 -5.56597e-015
rhumerus -38.4555 -14.8499 -57.1611
rradius 96.6249
rwrist -51.1574
rhand -17.9255 -37.3371
rfingers 7.12502
rthumb 8.34227 -67.1524
lclavicle -5.48646e-014 -5.56597e-015
lhumerus 19.3473 -16.7695 55.552
lradius 73.6833
lwrist -6.40945
lhand -27.7473 9.3958
lfingers 7.12502
lthumb -1.14186 39.3725
rfemur -51.0749 2.42143 24.8164
rtibia 61.2074
rfoot -3.32812 2.76459
rtoes -14.3322
lfemur -12.414 5.47777 -26.7076
ltibia 36.2449
lfoot -16.8364 1.87878
ltoes -28.6712
326
root 0.194125 17.6433 4.824 527.433 -85.9338 -514.023
lowerback 20.4847 -4.79177 0.443898
upperback 4.74875 -6.4588 -0.183384
thorax -6.30234 -3.25564 1.20361
lowerneck 4.10629 10.5696 9.53768
upperneck -12.3549 13.8049 -11.4961
head -2.82558 6.99517 -5.34511
rclavicle -1.05753e-013 3.33958e-014
rhumerus -38.1016 -14.2672 -57.5886
rradius 96.3796
rwrist -51.0028
rhand -17.9315 -37.1356
rfingers 7.12502
rthumb 8.33642 -66.9511
lclavicle -1.05753e-013 3.33958e-014
lhumerus 15.9716 -17.0985 57.2745
lradius 71.5969
lwrist -6.15564
lhand -27.063 9.71044
lfingers 7.12502
lthumb -0.480939 39.6896
rfemur -50.1055 2.70878 25.2626
rtibia 60.6604
rfoot -4.41699 2.05691
rtoes -7.28378
lfemur -11.7676 5.55099 -26.3998
ltibia 36.7043
lfoot -16.3702 2.4981
ltoes -29.8326
327
root 0.11292 17.6543 4.81567 527.705 -85.4717 -514.977
lowerback 20.4648 -4.7683 0.524682
upperback 4.9201 -6.42514 -0.178271
thorax -6.11455 -3.24952 1.14401
lowerneck 3.78929 10.281 9.59048
upperneck -11.8185 13.3974 -11.6932
head -2.63677 6.79791 -5.37053
rclavicle -6.44062e-014 1.19271e-014
rhumerus -38.1876 -13.8454 -57.7195
rradius 96.3229
rwrist -50.8736
rhand -18.129 -36.9469
rfingers 7.12502
rthumb 8.1458 -66.7699
lclavicle -6.44062e-014 1.19271e-014
lhumerus 12.3925 -17.4508 59.3824
lradius 69.2723
lwrist -5.27836
lhand -26.2532 10.8581
lfingers 7.12502
lthumb 0.301156 40.8376
rfemur -48.6928 3.29702 25.312
rtibia 59.4933
rfoot -5.07473 2.91893
rtoes -12.2587
lfemur -11.3264 5.80754 -26.2423
ltibia 37.7982
lfoot -15.7305 2.70011
ltoes -28.6843
328
root 0.0115345 17.673 4.79816 527.872 -85.1112 -515.884
lowerback 20.4311 -4.70764 0.617603
upperback 5.07566 -6.34166 -0.194094
thorax -5.94077 -3.21854 1.04278
lowerneck 3.56618 10.0476 9.72944
upperneck -11.3244 13.0859 -11.8345
head -2.46603 6.64267 -5.40078
rclavicle -8.5875e-014 -3.4191e-014
rhumerus -38.5595 -13.6368 -57.7849
rradius 96.2451
rwrist -50.6165
rhand -18.3381 -36.8281
rfingers 7.12502
rthumb 7.94402 -66.6589
lclavicle -8.5875e-014 -3.4191e-014
lhumerus 8.65912 -17.7087 61.8794
lradius 66.5656
lwrist -3.86868
lhand -25.8111 12.9775
lfingers 7.12502
lthumb 0.728211 42.956
rfemur -46.9216 3.98911 25.2212
rtibia 57.8552
rfoot -5.18602 5.25338
rtoes -15.9862
lfemur -11.2057 6.37847 -26.0443
ltibia 39.7304
lfoot -14.893 3.13836
ltoes -29.3973
329
root -0.0967348 17.663 4.77743 527.856 -84.8649 -516.543
lowerback 20.2786 -4.63933 0.863191
upperback 5.21271 -6.21952 -0.258984
thorax -5.74636 -3.16901 0.786253
lowerneck 3.48546 9.87602 9.92006
upperneck -11.0475 12.8643 -11.9593
head -2.37231 6.53054 -5.4522
rclavicle 8.90555e-014 3.81667e-014
rhumerus -39.1488 -13.771 -57.8268
rradius 96.0985
rwrist -50.2432
rhand -18.2768 -36.5091
rfingers 7.12502
rthumb 8.0032 -66.3376
lclavicle 8.90555e-014 3.81667e-014
lhumerus 4.94318 -17.621 64.6716
lradius 63.3658
lwrist -2.3252
lhand -25.8313 13.9238
lfingers 7.12502
lthumb 0.708643 43.9024
rfemur -44.7161 4.66112 25.0808
rtibia 56.0989
rfoot -5.0987 7.30564
rtoes -18.0648
lfemur -11.7484 7.2605 -25.8227
ltibia 42.7099
lfoot -13.2702 3.5033
ltoes -29.0037
330
root -0.209065 17.6269 4.75382 528.234 -84.8947 -517.461
lowerback 19.9855 -4.63916 1.12155
upperback 5.30862 -6.18104 -0.323195
thorax -5.52359 -3.15733 0.534911
lowerneck 3.39849 9.85068 10.0482
upperneck -10.8448 12.8306 -12.1075
head -2.28193 6.51469 -5.50104
rclavicle 9.54166e-015 -2.38542e-014
rhumerus -39.951 -14.0018 -57.7123
rradius 96.0898
rwrist -49.943
rhand -18.0229 -36.1727
rfingers 7.12502
rthumb 8.24822 -65.9917
lclavicle 9.54166e-015 -2.38542e-014
lhumerus 1.39076 -17.0463 67.5099
lradius 59.6413
lwrist -0.675992
lhand -26.1195 13.9168
lfingers 7.12502
lthumb 0.430376 43.8961
rfemur -42.5468 5.08187 24.8675
rtibia 54.4504
rfoot -5.82045 8.10136
rtoes -19.3711
lfemur -13.1195 8.31828 -25.6317
ltibia 46.825
lfoot -11.1451 4.22295
ltoes -33.4965
331
root -0.32441 17.5721 4.72712 527.213 -85.2165 -516.882
lowerback 19.6014 -4.69518 1.52861
upperback 5.36121 -6.17975 -0.30585
thorax -5.30552 -3.16172 0.291517
lowerneck 3.03037 10.0224 10.0339
upperneck -10.3537 13.0547 -12.191
head -2.04694 6.62403 -5.4739
rclavicle 5.04913e-014 -1.98785e-014
rhumerus -41.1133 -14.2668 -57.2169
rradius 96.3719
rwrist -49.8625
rhand -17.8188 -36.0565
rfingers 7.12502
rthumb 8.44517 -65.8677
lclavicle 5.04913e-014 -1.98785e-014
lhumerus -2.23748 -16.0391 70.4827
lradius 55.8389
lwrist 0.605992
lhand -25.5349 15.3867
lfingers 7.12502
lthumb 0.994956 45.3641
rfemur -40.3697 5.02481 24.8183
rtibia 53.0364
rfoot -8.62678 8.06338
rtoes -20.7427
lfemur -15.2373 9.25417 -25.2904
ltibia 51.9545
lfoot -7.49773 4.58503
ltoes -31.9866
332
root -0.425202 17.4784 4.69489 525.731 -85.7787 -515.605
lowerback 19.1014 -4.72736 1.99125
upperback 5.28211 -6.12977 -0.254413
thorax -5.16881 -3.13724 0.0394097
lowerneck 2.62626 10.3886 10.1366
upperneck -9.74136 13.5443 -12.4665
head -1.71824 6.86881 -5.5037
rclavicle -9.93923e-015 0
rhumerus -42.7169 -14.708 -56.359
rradius 96.9244
rwrist -49.9066
rhand -17.7336 -36.1016
rfingers 7.12502
rthumb 8.52739 -65.9094
lclavicle -9.93923e-015 0
lhumerus -6.17641 -15.0045 73.4116
lradius 52.3534
lwrist 1.36562
lhand -25.1515 17.5512
lfingers 7.12502
lthumb 1.36522 47.5266
rfemur -38.6282 4.52841 24.8472
rtibia 51.9335
rfoot -12.3478 7.60538
rtoes -20.0774
lfemur -18.2241 9.75106 -24.9419
ltibia 57.7775
lfoot -3.71032 4.98774
ltoes -29.0806
333
root -0.504461 17.3712 4.65428 521.069 -86.5473 -510.853
lowerback 18.5614 -4.77285 2.49513
upperback 5.03238 -6.07668 -0.110843
thorax -5.18599 -3.10686 -0.132632
lowerneck 2.86186 10.8703 10.7509
upperneck -9.61877 14.2074 -13.4096
head -1.52298 7.22533 -5.85464
rclavicle 1.74931e-014 -5.56597e-015
rhumerus -44.5939 -15.206 -55.2678
rradius 97.7292
rwrist -50.0206
rhand -17.6292 -36.2084
rfingers 7.12502
rthumb 8.62819 -66.012
lclavicle 1.74931e-014 -5.56597e-015
lhumerus -10.4792 -13.9853 76.1632
lradius 49.1412
lwrist 2.16824
lhand -26.0284 18.2873
lfingers 7.12502
lthumb 0.518331 48.2664
rfemur -37.7858 3.3777 25.3193
rtibia 51.031
rfoot -15.4118 6.68793
rtoes -18.7927
lfemur -22.012 9.6364 -24.4471
ltibia 63.9343
lfoot -0.0767548 5.39563
ltoes -21.5157
334
root -0.602378 17.2685 4.62235 515.24 -86.6314 -505.568
lowerback 18.4387 -4.55469 3.16261
upperback 4.99107 -5.66425 0.0115216
thorax -5.20191 -2.91024 -0.477822
lowerneck 4.42663 11.3471 11.6384
upperneck -10.6241 14.898 -14.9317
head -1.78644 7.6545 -6.55497
rclavicle 4.45278e-014 1.03368e-014
rhumerus -46.7745 -15.6987 -53.8541
rradius 98.8648
rwrist -50.3438
rhand -17.5243 -36.2925
rfingers 7.12502
rthumb 8.72938 -66.0919
lclavicle 4.45278e-014 1.03368e-014
lhumerus -15.0872 -12.6623 78.7461
lradius 46.3315
lwrist 2.34993
lhand -26.556 19.0785
lfingers 7.12502
lthumb 0.00873165 49.0583
rfemur -36.2445 2.59171 26.0247
rtibia 50.2771
rfoot -17.9585 6.08939
rtoes -15.8168
lfemur -25.042 9.73402 -23.5463
ltibia 69.9889
lfoot 3.71615 4.38659
ltoes -24.9897
